<svg viewBox="0 0 512 512" xmlns="http://www.w3.org/2000/svg" xmlns:xlink="http://www.w3.org/1999/xlink"><style>:root&gt;svg{display:none}:root&gt;svg:target{display:block}</style><svg id="basket" version="1.1" viewBox="0 0 64 64" xml:space="preserve" xmlns="http://www.w3.org/2000/svg"><style>.ast0{fill:#134563}</style><g id="aIcon-Trash" transform="translate(232 228)"><path class="ast0" id="aFill-6" d="M-207.5-205.1h3v24h-3z"/><path class="ast0" id="aFill-7" d="M-201.5-205.1h3v24h-3z"/><path class="ast0" id="aFill-8" d="M-195.5-205.1h3v24h-3z"/><path class="ast0" id="aFill-9" d="M-219.5-214.1h39v3h-39z"/><path class="ast0" d="M-192.6-212.6h-2.8v-3c0-.9-.7-1.6-1.6-1.6h-6c-.9 0-1.6.7-1.6 1.6v3h-2.8v-3c0-2.4 2-4.4 4.4-4.4h6c2.4 0 4.4 2 4.4 4.4v3" id="aFill-10"/><path class="ast0" d="M-191-172.1h-18c-2.4 0-4.5-2-4.7-4.4l-2.8-36 3-.2 2.8 36c.1.9.9 1.6 1.7 1.6h18c.9 0 1.7-.8 1.7-1.6l2.8-36 3 .2-2.8 36c-.2 2.5-2.3 4.4-4.7 4.4" id="aFill-11"/></g></svg><svg id="checkmark" version="1.1" viewBox="0 0 512 512" xml:space="preserve" xmlns="http://www.w3.org/2000/svg"><path d="M235.1 386.3c-5.7 0-11.1-2.4-14.9-6.6l-104.1-116c-7.4-8.2-6.7-20.9 1.5-28.2 8.2-7.4 20.9-6.7 28.2 1.5l86.8 96.8 131.6-199.1c6.1-9.2 18.5-11.7 27.7-5.7 9.2 6.1 11.7 18.5 5.7 27.7L251.8 377.4c-3.4 5.2-9 8.5-15.2 8.9h-1.5z" fill="#231f20"/></svg><svg viewBox="0 0 32 32" id="down-arrow" xmlns="http://www.w3.org/2000/svg"><path d="M16 21a1 1 0 01-.71-.29l-8-8a1 1 0 111.42-1.42l7.29 7.3 7.29-7.3a1 1 0 011.42 1.42l-8 8A1 1 0 0116 21z" data-name="Layer 2" id="cLayer_2"/><path d="M0 0h32v32H0z" id="cframe" fill="none"/></svg></svg>